<svg xmlns="http://www.w3.org/2000/svg" xmlns:xlink="http://www.w3.org/1999/xlink" fill="none" version="1.1" width="11.057591438293457" height="12" viewBox="0 0 11.057591438293457 12"><path d="M2.4571469,2.4000001L2.4571469,0.60000002C2.4571469,0.26863205,2.7321889,0,3.0714645,0L10.443274,0C10.782561,0,11.057591,0.26863205,11.057591,0.60000002L11.057591,9C11.057591,9.3313799,10.782561,9.6000004,10.443274,9.6000004L8.6003218,9.6000004L8.6003218,11.39946C8.6003218,11.731141,8.3239393,12,7.9818258,12L0.6184088,12C0.27680522,12,0,11.733241,0,11.39946L0.0015971974,3.0005224C0.0016587125,2.6688662,0.2780647,2.4000001,0.62010425,2.4000001L2.4571469,2.4000001ZM3.6857812,2.4000001L8.6003218,2.4000001L8.6003218,8.3999996L9.8289557,8.3999996L9.8289557,1.2L3.6857812,1.2L3.6857812,2.4000001Z" fill="#888888" fill-opacity="1" style="mix-blend-mode:passthrough"/></svg>