<svg xmlns="http://www.w3.org/2000/svg" xmlns:xlink="http://www.w3.org/1999/xlink" fill="none" version="1.1" width="15" height="14" viewBox="0 0 15 14"><path d="M10.772728,11.609756L8.863637,14.000001L6.954546,11.609756L3.4090912,11.609756C3.0325363,11.609756,2.7272727,11.30401,2.7272727,10.926828L2.7272727,3.4846752C2.7272727,3.1075084,3.0325363,2.8017483,3.4090912,2.8017483L14.318183,2.8017483C14.69475,2.8017483,15,3.1075084,15,3.4846752L15,10.926828C15,11.30401,14.69475,11.609756,14.318183,11.609756L10.772728,11.609756ZM0.68181819,0L12.272729,0L12.272729,1.3658535L1.3636364,1.3658535L1.3636364,8.8780479L0,8.8780479L0,0.68292677C0,0.30576006,0.30526373,0,0.68181819,0Z" fill="#111111" fill-opacity="1" style="mix-blend-mode:passthrough"/></svg>