<svg xmlns="http://www.w3.org/2000/svg" xmlns:xlink="http://www.w3.org/1999/xlink" fill="none" version="1.1" width="17" height="14" viewBox="0 0 17 14"><path d="M0,7.0000005C0.73894155,3.017591,4.2634869,0,8.5000257,0C12.736501,0,16.26107,3.017591,17,7.0000005C16.26107,10.982377,12.736501,14.000001,8.5000257,14.000001C4.2634869,14.000001,0.73894155,10.982377,0,7.0000005ZM8.5000257,10.88889C10.669606,10.88889,12.428433,9.1477566,12.428433,7.0000005C12.428433,4.8522286,10.669606,3.1111112,8.5000257,3.1111112C6.3303967,3.1111112,4.5715833,4.8522286,4.5715833,7.0000005C4.5715833,9.1477566,6.3303967,10.88889,8.5000257,10.88889ZM8.5000257,9.333333C7.1982293,9.333333,6.1429482,8.2887011,6.1429482,7.0000005C6.1429482,5.7112999,7.1982293,4.6666665,8.5000257,4.6666665C9.8017426,4.6666665,10.857072,5.7112999,10.857072,7.0000005C10.857072,8.2887011,9.8017426,9.333333,8.5000257,9.333333Z" fill="#F42C47" fill-opacity="1" style="mix-blend-mode:passthrough"/></svg>