<svg xmlns="http://www.w3.org/2000/svg" width="1024" height="1024" viewBox="0 0 108 108">
  <defs>
    <linearGradient id="ggrad" x1="14.62" y1="13.16" x2="0" y2="12.19" gradientUnits="userSpaceOnUse">
      <stop offset="0" stop-color="#45E0FF"/>
      <stop offset="1" stop-color="#FF50A5"/>
    </linearGradient>
  </defs>
  <rect x="0" y="0" width="108" height="108" fill="#FFFFFF"/>
  <g transform="translate(40.4,32.3) scale(1.65)">
    <path d="M11.58,26.31Q11.37,26.31,11.175,26.295Q10.98,26.28,10.77,26.25Q10.59,24.96,10.5,23.685Q10.41,22.41,10.38,21.27Q8.94,21.93,7.41,21.93Q5.49,21.93,3.795,20.88Q2.1,19.83,1.05,17.67Q0,15.51,0,12.24Q0,9.06,0.99,6.75Q1.98,4.44,3.57,2.94Q5.16,1.44,7.02,0.72Q8.88,0,10.62,0Q12.18,0,13.47,0.525Q14.76,1.05,15.525,1.995Q16.29,2.94,16.29,4.26Q16.29,5.34,15.69,6.3Q15.09,7.26,13.86,7.845Q12.63,8.43,10.74,8.43Q11.04,7.56,11.16,6.87Q11.28,6.18,11.28,5.67Q11.28,4.53,10.8,4.125Q10.32,3.72,9.69,3.72Q8.46,3.72,7.47,4.83Q6.48,5.94,5.91,7.725Q5.34,9.51,5.34,11.55Q5.34,14.46,6.48,16.11Q7.62,17.76,9.33,17.76Q9.99,17.76,10.71,17.49L10.71,17.46Q10.71,15.21,11.115,13.875Q11.52,12.54,12.165,11.97Q12.81,11.4,13.5,11.4Q14.25,11.4,14.925,11.91Q15.6,12.42,16.05,13.215Q16.5,14.01,16.5,14.94Q16.5,15.78,16.035,16.635Q15.57,17.49,14.46,18.18Q14.4,18.42,14.37,18.66Q14.34,18.9,14.34,19.14Q14.34,19.95,14.685,20.97Q15.03,21.99,15.78,23.82Q15.6,24.51,14.955,25.08Q14.31,25.65,13.425,25.98Q12.54,26.31,11.58,26.31Z" fill="url(#ggrad)"/>
  </g>
</svg>