<svg xmlns="http://www.w3.org/2000/svg" xmlns:xlink="http://www.w3.org/1999/xlink" fill="none" version="1.1" width="21.000263214111328" height="21" viewBox="0 0 21.000263214111328 21"><path d="M9.3751335,10.5C9.3751335,10.798368,9.493659,11.084517,9.7046375,11.295494C9.915616,11.506473,10.201764,11.625,10.500134,11.625C10.798502,11.625,11.084649,11.506473,11.295628,11.295494C11.506606,11.084517,11.625134,10.798368,11.625134,10.5C11.625134,10.201632,11.506606,9.9154835,11.295628,9.704505C11.084649,9.4935265,10.798502,9.375,10.500134,9.375C10.201764,9.375,9.915616,9.4935265,9.7046375,9.704505C9.493659,9.9154835,9.3751335,10.201632,9.3751335,10.5C9.3751335,10.5,9.3751335,10.5,9.3751335,10.5ZM14.062634,10.5C14.062634,10.798368,14.18116,11.084517,14.392138,11.295494C14.603117,11.506473,14.889264,11.625,15.187634,11.625C15.486002,11.625,15.772149,11.506473,15.983128,11.295494C16.194105,11.084517,16.312634,10.798368,16.312634,10.5C16.312634,10.201632,16.194105,9.9154835,15.983128,9.704505C15.772149,9.4935265,15.486002,9.375,15.187634,9.375C14.889264,9.375,14.603117,9.4935265,14.392138,9.704505C14.18116,9.9154835,14.062634,10.201632,14.062634,10.5ZM4.687633,10.5C4.687633,10.798368,4.8061595,11.084517,5.0171375,11.295494C5.228116,11.506473,5.5142646,11.625,5.812633,11.625C6.1110015,11.625,6.39715,11.506473,6.6081285,11.295494C6.8191066,11.084517,6.937633,10.798368,6.937633,10.5C6.937633,10.201632,6.8191066,9.9154835,6.6081285,9.704505C6.39715,9.4935265,6.1110015,9.375,5.812633,9.375C5.5142646,9.375,5.228116,9.4935265,5.0171375,9.704505C4.8061595,9.9154835,4.687633,10.201632,4.687633,10.5C4.687633,10.5,4.687633,10.5,4.687633,10.5ZM20.184509,6.4312496C19.654821,5.1726561,18.895447,4.0429688,17.927477,3.0726564C16.96628,2.1079607,15.825212,1.3411447,14.568882,0.81562507C13.279819,0.2742188,11.911071,0,10.500134,0C10.500134,0,10.453259,0,10.453259,0C9.0329456,0.0070312503,7.6571641,0.28828126,6.3634143,0.84140629C5.1178455,1.3723155,3.9874694,2.1404934,3.0352893,3.1031249C2.0766954,4.0710936,1.3243518,5.196094,0.80403924,6.4500003C0.26497677,7.7484379,-0.006898283,9.1289053,0.00013296725,10.549218C0.0080858991,12.176884,0.39316064,13.78056,1.1251329,15.234375C1.1251329,15.234375,1.1251329,18.796875,1.1251329,18.796875C1.1251329,19.082811,1.2387209,19.357037,1.4409086,19.559225C1.6430962,19.761412,1.9173214,19.875,2.203258,19.875C2.203258,19.875,5.7681017,19.875,5.7681017,19.875C7.2219162,20.606972,8.825592,20.992046,10.453259,21C10.453259,21,10.502476,21,10.502476,21C11.906383,21,13.268102,20.728125,14.550133,20.196095C15.800117,19.676836,16.93693,18.918961,17.897007,17.964844C18.864977,17.00625,19.626696,15.885938,20.158726,14.636719C20.711851,13.342969,20.993101,11.967188,21.000134,10.546875C21.007164,9.1195316,20.730602,7.734375,20.184509,6.4312496C20.184509,6.4312496,20.184509,6.4312496,20.184509,6.4312496ZM16.643101,16.696877C15.000133,18.323439,12.820446,19.21875,10.500134,19.21875C10.500134,19.21875,10.460289,19.21875,10.460289,19.21875C9.0470076,19.21172,7.6431022,18.860157,6.4032583,18.199219C6.4032583,18.199219,6.2063828,18.09375,6.2063828,18.09375C6.2063828,18.09375,2.906383,18.09375,2.906383,18.09375C2.906383,18.09375,2.906383,14.793751,2.906383,14.793751C2.906383,14.793751,2.8009143,14.596874,2.8009143,14.596874C2.1399767,13.357031,1.7884142,11.953125,1.781383,10.539845C1.7720081,8.203125,2.6649768,6.0093746,4.3032579,4.3570309C5.9391956,2.7046874,8.1259146,1.790625,10.462633,1.78125C10.462633,1.78125,10.502476,1.78125,10.502476,1.78125C11.674351,1.78125,12.81107,2.0085936,13.882164,2.4585936C14.927477,2.8968749,15.864977,3.5273435,16.671227,4.3335934C17.475132,5.1374998,18.107944,6.0773435,18.546227,7.1226559C19.000914,8.2054682,19.228258,9.3539066,19.223572,10.539845C19.209509,12.874219,18.2931,15.060938,16.643101,16.696877C16.643101,16.696877,16.643101,16.696877,16.643101,16.696877Z" fill="#000000" fill-opacity="0.44999998807907104"/></svg>