<svg xmlns="http://www.w3.org/2000/svg" xmlns:xlink="http://www.w3.org/1999/xlink" fill="none" version="1.1" width="20" height="20" viewBox="0 0 20 20"><path d="M2.4739575,3.9880524C2.5817914,3.8689513,2.6931415,3.7519057,2.808017,3.6370542C3.3229651,3.1222124,3.881918,2.6781847,4.472765,2.3049698C4.1383533,2.2128134,3.8377848,2.158231,3.5743299,2.1383576C2.9646499,2.0923915,2.6976476,2.2371385,2.5837729,2.3509893C2.4698989,2.4648397,2.3251221,2.7317867,2.3711085,3.3413298C2.3858619,3.5368886,2.4197581,3.7529178,2.4739575,3.9880524ZM18.882139,12.769259C18.947758,12.900256,19.010609,13.030188,19.070791,13.158951C19.578379,14.246441,19.913717,15.307947,19.985622,16.262096C20.057312,17.21167,19.873133,18.200859,19.155052,18.918789C18.436867,19.636827,17.447578,19.820864,16.49781,19.749292C15.666285,19.686562,14.753266,19.424034,13.812551,19.021776L13.809781,19.023056C13.646693,18.953297,13.482753,18.879383,13.318172,18.801424C11.152538,17.776556,8.6747875,15.974756,6.3487277,13.649178C4.0250654,11.326051,2.2242968,8.8515825,1.1986082,6.6880264C1.1203988,6.5230455,1.0461191,6.3586693,0.97606903,6.1951675L0.97718751,6.1928887C0.57325888,5.2500262,0.30952653,4.3348551,0.24665599,3.5015299C0.17501852,2.5519156,0.35916662,1.5627998,1.077299,0.84481674C1.7954309,0.12684423,2.7847416,-0.057265937,3.7345524,0.014356667C4.6889124,0.086320035,5.750596,0.42157766,6.8383021,0.92905962C6.9693694,0.99021316,7.1016088,1.0542423,7.2349124,1.1210935C10.399199,0.32372379,13.891166,1.1623735,16.36636,3.6370542C18.842192,6.1124477,19.680857,9.6048708,18.882139,12.769259ZM17.696634,15.531386C17.32369,16.120981,16.880339,16.678625,16.36636,17.192499C16.25238,17.306456,16.13616,17.417006,16.018026,17.524038C16.250568,17.577291,16.464361,17.610626,16.658022,17.625217C17.26766,17.671227,17.534716,17.526489,17.64859,17.41264C17.762466,17.298788,17.90723,17.031895,17.861212,16.422276C17.841507,16.160814,17.787605,15.862823,17.696634,15.531386ZM2.808017,17.192499C0.39670587,14.781719,-0.46161205,11.406246,0.23304226,8.3086357C1.3859313,10.418227,3.1144865,12.674898,5.2188697,14.778845C7.3249359,16.884495,9.5840769,18.613874,11.695704,19.766544C8.5970249,20.461897,5.2198391,19.603916,2.808017,17.192499Z" fill="#111111" fill-opacity="1" style="mix-blend-mode:passthrough"/></svg>