<svg xmlns="http://www.w3.org/2000/svg" xmlns:xlink="http://www.w3.org/1999/xlink" fill="none" version="1.1" width="9" height="11" viewBox="0 0 9 11"><path d="M7.6153846,5.9583564L0.53816533,10.643737C0.37910062,10.748993,0.1641809,10.706369,0.058133125,10.54838C0.020229302,10.491937,0,10.425592,0,10.357669L0,0.64230365C0,0.45245761,0.15497984,0.29855365,0.34615386,0.29855365C0.41449156,0.29855365,0.48130617,0.3186425,0.53816533,0.3562831L7.6153846,5.0416436L7.6153846,0.6875C7.6153846,0.30780753,7.9253311,0,8.3076925,0C8.6900539,0,9,0.30780753,9,0.6875L9,10.3125C9,10.692204,8.6900539,11,8.3076925,11C7.9253311,11,7.6153846,10.692204,7.6153846,10.3125L7.6153846,5.9583564Z" fill="#888888" fill-opacity="1" style="mix-blend-mode:passthrough"/></svg>