<svg xmlns="http://www.w3.org/2000/svg" xmlns:xlink="http://www.w3.org/1999/xlink" fill="none" version="1.1" width="10" height="11" viewBox="0 0 10 11"><path d="M7.1999998,11L0,11L0,10.166667499999999C0,9.0160837,1.0073611,8.083334,2.25,8.083334L4.9499998,8.083334C6.1926303,8.083334,7.1999998,9.0160837,7.1999998,10.166667499999999L7.1999998,11ZM3.5999999,7.25C2.1088305,7.25,0.89999998,6.1307082,0.89999998,4.75C0.89999998,3.3692876,2.1088305,2.25,3.5999999,2.25C5.0911646,2.25,6.3000002,3.3692876,6.3000002,4.75C6.3000002,6.1307082,5.0911646,7.25,3.5999999,7.25Z" fill="#111111" fill-opacity="1" style="mix-blend-mode:passthrough"/><path d="M8.356705,3.5621009L8.233405600000001,3.8447859C8.1432056,4.0517373,7.8568066000000005,4.0517373,7.766557,3.8447859L7.6433073,3.5621009C7.4235576000000005,3.0580573,7.0277592,2.6567481,6.53386045,2.4372032L6.1540122,2.2683659C5.948662441,2.1770711,5.948662441,1.8783751,6.1540122,1.7870797L6.5126107300000005,1.6276774C7.0192095000000005,1.402486,7.4221081,0.98632425,7.6380574,0.46516013L7.7646573,0.15967776C7.8529061,-0.053225923,8.1471062,-0.053225923,8.235305499999999,0.15967776L8.3619053,0.46516013C8.577904499999999,0.98632425,8.9808025,1.402486,9.4874017,1.6276774L9.8459504,1.7870797C10.0513492,1.8783751,10.0513492,2.1770711,9.8459504,2.2683659L9.4661522,2.4372032C8.9722531,2.6567481,8.5764549,3.0580573,8.356705,3.5621009Z" fill="#F42C47" fill-opacity="1" style="mix-blend-mode:passthrough"/></svg>