<svg xmlns="http://www.w3.org/2000/svg" xmlns:xlink="http://www.w3.org/1999/xlink" fill="none" version="1.1" width="14" height="13" viewBox="0 0 14 13"><path d="M0.69999999,11.555556L0.69999999,0.72222227C0.69999999,0.32335338,1.013404,0,1.4,0L7.6999998,0C8.0866108,0,8.4000006,0.32335338,8.4000006,0.72222227L8.4000006,6.5L9.8000002,6.5C10.573221,6.5,11.2,7.146678,11.2,7.9444451L11.2,10.833334C11.2,11.232218,11.513391,11.555556,11.9,11.555556C12.286611,11.555556,12.6,11.232218,12.6,10.833334L12.6,5.7777781L11.2,5.7777781C10.813391,5.7777781,10.500001,5.4544396,10.500001,5.0555563L10.500001,2.4658184L9.3401699,1.2692046L10.33018,0.2478305L13.79497,3.8226426C13.93168,3.9636714,14.000001,4.1485023,14.000001,4.3333335L14.000001,10.833334C14.000001,12.029984,13.059831,13,11.9,13C10.74017,13,9.8000002,12.029984,9.8000002,10.833334L9.8000002,7.9444451L8.4000006,7.9444451L8.4000006,11.555556L9.1000004,11.555556L9.1000004,13L0,13L0,11.555556L0.69999999,11.555556ZM2.1000001,1.4444445L2.1000001,5.7777781L7.0000005,5.7777781L7.0000005,1.4444445L2.1000001,1.4444445Z" fill="#111111" fill-opacity="1" style="mix-blend-mode:passthrough"/></svg>