<svg xmlns="http://www.w3.org/2000/svg" xmlns:xlink="http://www.w3.org/1999/xlink" fill="none" version="1.1" width="13.885246276855469" height="14" viewBox="0 0 13.885246276855469 14"><defs><clipPath id="master_svg0_54_5711"><rect x="0" y="0" width="13.885246276855469" height="14" rx="0"/></clipPath></defs><g clip-path="url(#master_svg0_54_5711)"><path d="M1.1572265625,2.9166259765625L5.2070898625,1.1666259765625L8.6784009625,2.9166259765625L12.3250135625,1.3408676965625C12.4719075625,1.2774126165625,12.6419435625,1.3459952065625,12.7048915625,1.4940568465625C12.7202805625,1.5303634365625,12.7282645625,1.5694527065625001,12.7282645625,1.6089501665625L12.7282645625,11.0832929765625L8.6784009625,12.8332929765625L5.2070898625,11.0832929765625L1.5604540725,12.6590509765625C1.4136060525,12.7225189765625,1.2435522755,12.6539169765625,1.1806174555,12.5058669765625C1.1651816955,12.4695839765625,1.1572265625,12.4304429765625,1.1572265625,12.3909499765625L1.1572265625,2.9166259765625ZM8.6784009625,11.5289009765625L8.6784009625,4.1859242765625L8.640910162499999,4.202111676562501L5.2070898625,2.4710002765625L5.2070898625,9.8140172765625L5.2445568625,9.7978019765625L8.6784009625,11.5289009765625Z" fill="#111111" fill-opacity="1" style="mix-blend-mode:passthrough"/></g></svg>