<svg xmlns="http://www.w3.org/2000/svg" xmlns:xlink="http://www.w3.org/1999/xlink" fill="none" version="1.1" width="14" height="14" viewBox="0 0 14 14"><path d="M0.77777785,0L13.222223,0C13.65179,0,14,0.34822673,14,0.77777785L14,6.2222228L0,6.2222228L0,0.77777785C0,0.34822673,0.34822673,0,0.77777785,0ZM0,7.7777781L14,7.7777781L14,13.222223C14,13.65179,13.65179,14,13.222223,14L0.77777785,14C0.34822673,14,0,13.65179,0,13.222223L0,7.7777781ZM3.1111114,10.111112L3.1111114,11.666667L5.4444447,11.666667L5.4444447,10.111112L3.1111114,10.111112ZM3.1111114,2.3333335L3.1111114,3.8888891L5.4444447,3.8888891L5.4444447,2.3333335L3.1111114,2.3333335Z" fill="#111111" fill-opacity="1" style="mix-blend-mode:passthrough"/></svg>