<svg xmlns="http://www.w3.org/2000/svg" xmlns:xlink="http://www.w3.org/1999/xlink" fill="none" version="1.1" width="12" height="12" viewBox="0 0 12 12"><ellipse cx="6.000000238418579" cy="1.7531391382217407" rx="1.0499999523162842" ry="1.0031391382217407" fill-opacity="0" stroke-opacity="1" stroke="#111111" fill="none" stroke-width="1.5"/><ellipse cx="1.7999999523162842" cy="8.765695691108704" rx="1.0499999523162842" ry="1.0031391382217407" fill-opacity="0" stroke-opacity="1" stroke="#111111" fill="none" stroke-width="1.5"/><ellipse cx="10.200000524520874" cy="8.765695691108704" rx="1.0499999523162842" ry="1.0031391382217407" fill-opacity="0" stroke-opacity="1" stroke="#111111" fill="none" stroke-width="1.5"/><g><path d="M0.8571428656578064,6.792164245072937Q0.8571428656578064,6.572862545072937,0.8753491716578063,6.354337145072937Q0.8935554776578064,6.135811645072937,0.9298391866578064,5.919609945072937Q0.9661228856578064,5.703407645072938,1.0202271056578063,5.4910603450729365Q1.0743313156578065,5.278712845072937,1.1458729756578063,5.071723345072937Q1.2174146156578063,4.864733545072937,1.3058871656578064,4.664567345072937Q1.3943597056578065,4.464400845072937,1.4991368056578063,4.272475345072937Q1.6039138456578064,4.080549645072937,1.7242534756578065,3.898223245072937Q1.8445932256578064,3.715896945072937,1.9796436656578065,3.544461145072937Q2.1146938656578067,3.373025045072937,2.2634987656578067,3.213693045072937Q2.4123033656578063,3.054361245072937,2.573809065657806,2.908261645072937Q2.7353146656578065,2.762161945072937,2.9083775656578066,2.6303290150729373Q3.0814406656578064,2.4984961150729372,3.264835765657806,2.381863355072937Q3.4482306656578063,2.2652304150729368,3.6406590656578066,2.164623435072937Q3.8330876656578066,2.064016465072937,4.033187565657807,1.9801476550729369Q4.233286765657807,1.896278855072937,4.439640965657807,1.829742065072937Q4.645995065657806,1.7632052710729371,4.857142865657806,1.714471566112937L4.857142865657806,2.463289855072937L7.142856965657806,2.463289855072937L7.142856965657806,1.714471566112937Q7.354003365657807,1.7632052710729371,7.560357465657806,1.829742075072937Q7.766711665657806,1.896278875072937,7.966811565657807,1.9801476850729371Q8.166910565657806,2.064016465072937,8.359339165657806,2.1646234650729372Q8.551767765657807,2.2652304150729368,8.735163665657806,2.381863355072937Q8.918558565657806,2.4984961150729372,9.091620865657806,2.630329075072937Q9.264684165657807,2.762161945072937,9.426190765657806,2.908261645072937Q9.587695565657807,3.054361245072937,9.736500165657807,3.213693145072937Q9.885304865657806,3.373025045072937,10.020356565657806,3.544461145072937Q10.155406365657806,3.715896945072937,10.275745765657806,3.898223245072937Q10.396085165657807,4.080549645072937,10.500862565657807,4.272475345072937Q10.605637965657806,4.464400845072937,10.694111265657806,4.664567345072937Q10.782583665657807,4.864733545072937,10.854126365657807,5.071723345072937Q10.925665865657807,5.278712845072937,10.979770865657807,5.491060145072937Q11.033874865657806,5.703407645072938,11.070159865657807,5.919609945072937Q11.106442865657806,6.135811645072937,11.124649865657807,6.354337145072937Q11.142855865657806,6.572862545072937,11.142856865657807,6.792164245072937Q11.142856865657807,7.413245545072937,10.998621865657807,8.016908045072938L9.962318865657807,7.436468945072937L8.857054165657807,9.460059545072937L9.980788665657807,10.089468845072936Q9.800460265657806,10.312719245072937,9.596888965657806,10.514440445072937Q9.393319565657807,10.716161645072937,9.168996265657807,10.893886445072937Q8.944673965657806,11.071611245072937,8.702343865657806,11.223164445072937Q8.460012865657806,11.374717545072937,8.202638065657807,11.498246045072937Q7.945263365657806,11.621774545072936,7.675992865657807,11.715769145072937Q7.406721965657806,11.809761145072937,7.128848465657806,11.873069145072938Q6.850974965657806,11.936378145072936,6.567897265657806,11.968226145072936Q6.2848195656578065,12.000075145072937,5.999999965657806,12.000075145072937Q5.722624765657806,12.000075145072937,5.446857865657806,11.969866145072936Q5.171091465657806,11.939654145072938,4.900133565657806,11.879583145072937Q4.629175365657806,11.819513145072937,4.366169165657807,11.730279145072936Q4.103162965657806,11.641044545072937,3.8511599656578066,11.523682445072938Q3.5991577656578064,11.406321445072937,3.3610820656578064,11.262193545072938Q3.1230062656578066,11.118064745072937,2.9016195656578065,10.948842845072937Q2.6802332656578063,10.779621045072936,2.4781045656578065,10.587267745072937Q2.275975665657806,10.394914545072938,2.0954494656578064,10.181661445072937L3.3406299656578065,9.484229445072938L2.2353655656578066,7.460638845072937L1.0310853256578063,8.135162745072936Q0.8571428656578064,7.475214345072937,0.8571428656578064,6.792164245072937ZM8.213475165657806,4.514912445072937Q9.142856965657806,5.456050745072937,9.142856965657806,6.792164245072937Q9.142856965657806,8.128277645072938,8.213475165657806,9.069416445072937Q7.294440665657806,10.000076145072937,5.999999965657806,10.000076145072937Q4.705559165657807,10.000076145072937,3.786524665657806,9.069416445072937Q2.8571428656578064,8.128278645072937,2.8571428656578064,6.792164245072937Q2.8571428656578064,5.456050245072937,3.786524665657806,4.514912445072937Q4.705558965657806,3.584253145072937,5.999999965657806,3.584253145072937Q7.294440665657806,3.584253145072937,8.213475165657806,4.514912445072937Z" fill-rule="evenodd" fill="#111111" fill-opacity="1"/></g></svg>