<svg xmlns="http://www.w3.org/2000/svg" xmlns:xlink="http://www.w3.org/1999/xlink" fill="none" version="1.1" width="32" height="32" viewBox="0 0 32 32"><g><path d="M16.000000746139527,29.333334746139528C8.636200146139526,29.333334746139528,2.6666667461395264,23.363733746139527,2.6666667461395264,16.000000746139527C2.6666667461395264,8.636200146139526,8.636200146139526,2.6666667461395264,16.000000746139527,2.6666667461395264C23.363733746139527,2.6666667461395264,29.333334746139528,8.636200146139526,29.333334746139528,16.000000746139527C29.333334746139528,23.363733746139527,23.363733746139527,29.333334746139528,16.000000746139527,29.333334746139528ZM16.00009874613953,27.733311746139528C22.480232746139528,27.733311746139528,27.733433746139525,22.480110746139527,27.733433746139525,15.999976746139527C27.733433746139525,9.519829546139526,22.480232746139528,4.266642346139527,16.00009874613953,4.266642346139527C9.519951546139527,4.266642346139527,4.266764446139526,9.519829546139526,4.266764446139526,15.999976746139527C4.266764446139526,22.480110746139527,9.519951546139527,27.733311746139528,16.00009874613953,27.733311746139528ZM15.200357746139526,9.333292746139527L16.800357746139525,9.333292746139527L16.800357746139525,15.199991746139526L22.666990746139525,15.199991746139526L22.666990746139525,16.799991746139526L16.800357746139525,16.799991746139526L16.800357746139525,22.666624746139526L15.200357746139526,22.666624746139526L15.200357746139526,16.799991746139526L9.333658946139526,16.799991746139526L9.333658946139526,15.199991746139526L15.200357746139526,15.199991746139526L15.200357746139526,9.333292746139527Z" fill-rule="evenodd" fill="#000000" fill-opacity="0.8999999761581421"/></g></svg>