<svg width="12" height="13" viewBox="0 0 12 13" fill="none" xmlns="http://www.w3.org/2000/svg">
<g clip-path="url(#clip0_515_244)">
<path d="M5.00067 8.92822C7.03071 8.92822 8.06865 9.56698 8.59344 10.2388C8.85346 10.5716 8.98197 10.9049 9.04462 11.1558C9.0759 11.2811 9.09101 11.3866 9.09833 11.4614C9.10195 11.4985 9.1034 11.5282 9.10419 11.5493C9.10458 11.5599 9.1051 11.5686 9.10516 11.5747V11.5854C9.10516 11.5855 9.10472 11.5845 9.10321 11.5845C9.1329 11.8929 8.90619 12.145 8.59247 12.145H1.40985C1.10445 12.145 0.859052 11.8977 0.897156 11.5854V11.5747C0.897215 11.5686 0.897739 11.5599 0.898132 11.5493C0.898921 11.5282 0.900368 11.4985 0.903992 11.4614C0.911315 11.3866 0.926415 11.2811 0.957703 11.1558C1.02033 10.905 1.14807 10.5715 1.4079 10.2388C1.93266 9.56702 2.97088 8.9283 5.00067 8.92822ZM4.99969 3.51123C6.3541 3.51123 7.44199 4.51865 7.44208 6.04248C7.44208 7.54647 6.37238 8.81201 4.99969 8.81201C3.62716 8.81183 2.55829 7.54636 2.55829 6.04248C2.55838 4.51876 3.64543 3.51138 4.99969 3.51123ZM4.99969 4.22803C4.4965 4.2281 4.06761 4.41241 3.76434 4.72607C3.46088 5.03996 3.27513 5.49224 3.27509 6.04248C3.27509 7.20859 4.07947 8.09502 4.99969 8.09521C5.92005 8.09521 6.72528 7.20871 6.72528 6.04248C6.72524 5.49235 6.53938 5.03995 6.23602 4.72607C5.9327 4.41235 5.50302 4.22803 4.99969 4.22803Z" fill="#171717" stroke="#171717" stroke-width="0.3"/>
<path d="M4.5 4H5H6L7 5V6V7L6 8L5 8.5L4 8L3 7V5.5L3.5 4.5L4.5 4Z" fill="#171717"/>
</g>
<g clip-path="url(#clip1_515_244)">
<path d="M8.06306 1.89145L8.99998 0.176719L9.93689 1.89145L11.6516 2.82837L9.93689 3.76529L8.99998 5.48002L8.06306 3.76529L6.34833 2.82837L8.06306 1.89145Z" fill="#FF2442"/>
</g>
<defs>
<clipPath id="clip0_515_244">
<rect width="10" height="10" fill="white" transform="translate(0 2.82837)"/>
</clipPath>
<clipPath id="clip1_515_244">
<rect width="4" height="4" fill="white" transform="translate(6.17157 2.82837) rotate(-45)"/>
</clipPath>
</defs>
</svg>
