<svg width="24" height="23" viewBox="0 0 24 23" fill="none" xmlns="http://www.w3.org/2000/svg">
<g clip-path="url(#clip0_78_552)">
<path d="M20.6929 14.0251C21.9899 9.31242 19.1478 4.80965 14.3449 3.96786C12.9245 3.719 11.4318 3.81522 9.99726 4.24811C7.30001 3.33551 5.00049 3.56504 3.67968 4.89205C2.31028 6.26788 2.27103 8.54301 3.33486 11.0268C3.28429 11.1024 3.24751 11.185 3.22629 11.2706C2.09803 16.0097 5.11121 20.4003 9.95645 21.0768C11.1823 21.2479 12.4543 21.1659 13.6906 20.8361C13.7805 20.8122 13.8666 20.773 13.9449 20.7203C16.5839 21.6266 18.9532 21.4813 20.3226 20.1055C21.6434 18.7785 21.7741 16.5664 20.6929 14.0251ZM8.75319 15.7617C4.46248 11.8395 3.18233 7.38746 4.71977 5.84281C5.33969 5.21998 6.4359 5.012 7.79339 5.21464C7.05011 5.65288 6.36558 6.18438 5.75986 6.79357C5.70662 6.84706 3.99998 9.5 9.49998 14.5C14.1352 18.7138 17.1778 18.1948 17.4137 18.4105C17.7008 18.6729 6.50084 8.04427 6.79995 7.74433C9.79075 4.74174 14.5424 4.43746 17.4137 7.0639C20.2832 9.6893 20.1887 14.2495 17.2017 17.2527C16.9029 17.5529 17.1263 18.1478 17.4137 18.4105C17.3285 18.3809 17.4823 18.4732 17.4137 18.4105C17.6848 18.5047 18.0145 18.4324 18.2421 18.2037C18.8486 17.595 19.3704 16.9147 19.7919 16.1826C20.0671 17.4731 19.9018 18.532 19.2822 19.1545C17.7451 20.6994 13.0442 19.6842 8.75319 15.7617Z" fill="#333333"/>
<path d="M13 5L17 6L19 8L20 11L19.5 13.5L19 16.5L17.5 18H16L12.5 15L6 8L7 6.5L9.5 5.5L13 5Z" fill="#333333"/>
<path d="M16.5 18L17.5 18.5V18H16.5Z" fill="#292929"/>
</g>
<defs>
<clipPath id="clip0_78_552">
<rect width="24" height="23" fill="white"/>
</clipPath>
</defs>
</svg>
