<svg width="24" height="24" viewBox="0 0 24 24" fill="none" xmlns="http://www.w3.org/2000/svg">
<path d="M5.14139 21H11.5166C14.1498 21 16.552 20.0365 18.3537 18.2409C20.1554 16.4891 21.1255 14.1241 20.9869 11.6277C20.8022 6.9854 16.8292 3.17518 11.8861 3H11.5166C9.06813 3 6.71209 3.87591 4.91041 5.49635C3.01633 7.20438 2 9.52555 2 11.9781C2 14.3869 3.01633 16.6642 4.81801 18.3723C5.0028 18.5474 5.14139 18.8102 5.14139 19.073V21Z" fill="#333333"/>
<path d="M6.17078 12.0084C6.17078 12.6089 6.67894 13.1171 7.2795 13.1171C7.88006 13.1171 8.38823 12.6089 8.38823 12.0084C8.38823 11.4078 7.88006 10.8997 7.2795 10.8997C6.67894 10.8997 6.17078 11.4078 6.17078 12.0084ZM10.3747 12.0084C10.3747 12.6089 10.8829 13.1171 11.4834 13.1171C12.084 13.1171 12.5921 12.6089 12.5921 12.0084C12.5921 11.4078 12.084 10.8997 11.4834 10.8997C10.8829 10.8997 10.3747 11.4078 10.3747 12.0084ZM14.5786 12.0084C14.5786 12.6089 15.0868 13.1171 15.6873 13.1171C16.2879 13.1171 16.7961 12.6089 16.7961 12.0084C16.7961 11.4078 16.2879 10.8997 15.6873 10.8997C15.0868 10.8997 14.5786 11.4078 14.5786 12.0084Z" fill="white"/>
</svg>
