<svg width="24" height="24" viewBox="0 0 24 24" fill="none" xmlns="http://www.w3.org/2000/svg">
<path d="M18.7057 20.9989H6.28329C5.02864 20.9989 3.989 20.0379 4.00009 18.8575C4.0012 15.2767 7.11123 12.3717 10.9428 12.3717H14.0573C17.8889 12.3717 21 15.2662 21 18.8585C20.9993 19.1413 20.9393 19.4212 20.8235 19.682C20.7076 19.9429 20.5382 20.1796 20.3251 20.3786C20.1119 20.5776 19.8591 20.7349 19.5812 20.8416C19.3033 20.9482 19.0057 21.002 18.7057 20.9999V20.9989ZM4.22287 18.8596C4.22287 15.3947 7.23204 12.5816 10.9428 12.5816H14.0573C17.7692 12.5816 20.7783 15.3832 20.7783 18.8596C20.7773 19.1148 20.7228 19.3672 20.618 19.6025C20.5132 19.8378 20.3601 20.0512 20.1675 20.2306C19.975 20.41 19.7467 20.5517 19.4958 20.6477C19.245 20.7437 18.9765 20.792 18.7057 20.79H6.28329C5.14723 20.79 4.21067 19.9188 4.22176 18.8596H4.22287ZM14.0462 13.7495H10.9428C7.91479 13.7495 5.4742 16.0413 5.4742 18.8596C5.4742 19.2722 5.82998 19.6106 6.28329 19.6106H18.7057C19.1579 19.6106 19.5148 19.2722 19.5148 18.8585C19.5148 16.0413 17.0631 13.7505 14.0462 13.7505V13.7495ZM17.8855 7.04116C17.8855 9.82916 15.466 12.0834 12.4879 12.0834C9.52412 12.0834 7.09128 9.8302 7.10347 7.04116C7.10347 4.25421 9.51082 2 12.489 2C15.466 2 17.8855 4.25421 17.8855 7.04116ZM7.32515 7.04116C7.32515 4.37121 9.63163 2.20892 12.489 2.20892C15.3452 2.20892 17.6639 4.37121 17.6639 7.04116C17.6639 9.71217 15.3452 11.8745 12.4879 11.8745C9.64382 11.8745 7.31406 9.71217 7.32515 7.04116ZM16.4114 7.05265C16.4114 5.02929 14.6624 3.38825 12.4879 3.38825C10.3266 3.38825 8.57648 5.02825 8.56539 7.04221C8.56685 7.52634 8.6695 8.00547 8.86749 8.4522C9.06548 8.89893 9.35493 9.30452 9.7193 9.64579C10.0837 9.98706 10.5158 10.2573 10.991 10.4411C11.4663 10.6249 11.9753 10.7187 12.489 10.7171C14.6624 10.7171 16.4125 9.07706 16.4125 7.05265H16.4114ZM14.0462 13.5406H10.9428C7.79398 13.5406 5.25253 15.9243 5.25253 18.8596C5.25253 19.3892 5.70917 19.8196 6.28329 19.8196H18.7057C19.2787 19.8196 19.7365 19.3892 19.7365 18.8585C19.7365 15.9233 17.1839 13.5416 14.0462 13.5416V13.5406ZM16.6331 7.05265C16.6331 4.91126 14.7832 3.17934 12.4879 3.17934C10.2046 3.17934 8.35591 4.9123 8.34372 7.04116C8.34372 9.18256 10.1947 10.926 12.489 10.926C14.7832 10.926 16.6342 9.19301 16.6342 7.05265H16.6331Z" fill="#666666"/>
</svg>
