<svg width="24" height="23" viewBox="0 0 24 23" fill="none" xmlns="http://www.w3.org/2000/svg">
<g clip-path="url(#clip0_78_181)">
<path d="M20.6929 14.0251C21.9899 9.31242 19.1478 4.80965 14.3449 3.96786C12.9245 3.719 11.4318 3.81522 9.99727 4.24811C7.30002 3.33552 5.0005 3.56504 3.67969 4.89205C2.3103 6.26788 2.27104 8.54301 3.33488 11.0268C3.2843 11.1024 3.24753 11.185 3.2263 11.2706C2.09805 16.0097 5.11123 20.4003 9.95646 21.0768C11.1823 21.2479 12.4543 21.1659 13.6906 20.8361C13.7806 20.8122 13.8666 20.773 13.9449 20.7203C16.584 21.6266 18.9532 21.4813 20.3226 20.1055C21.6434 18.7785 21.7741 16.5664 20.6929 14.0251ZM6.5879 17.9372C5.25184 16.7188 4.50245 15.009 4.49569 13.1631C5.39398 14.5166 6.45924 15.753 7.6704 16.8496C8.86996 17.9573 10.2096 18.9186 11.6627 19.7146C9.7385 19.7953 7.92073 19.1586 6.5879 17.9372ZM8.7532 15.7617C4.4625 11.8395 3.18235 7.38746 4.71978 5.84281C5.33971 5.21998 6.43591 5.012 7.7934 5.21464C7.05012 5.65288 6.3656 6.18438 5.75987 6.79357C5.46106 7.09378 5.45186 7.55028 5.73897 7.81272C6.02607 8.07517 6.50086 8.04427 6.79996 7.74433C9.79076 4.74174 14.5424 4.43746 17.4137 7.0639C20.2832 9.6893 20.1887 14.2495 17.2017 17.2527C16.9029 17.5529 16.8931 18.0095 17.1805 18.2722C17.4676 18.5346 17.943 18.5043 18.2421 18.2037C18.8486 17.595 19.3704 16.9147 19.7919 16.1826C20.0672 17.4731 19.9018 18.532 19.2822 19.1545C17.7451 20.6994 13.0442 19.6842 8.7532 15.7617Z" fill="#666666"/>
</g>
<defs>
<clipPath id="clip0_78_181">
<rect width="24" height="23" fill="white"/>
</clipPath>
</defs>
</svg>
