<svg width="24" height="24" viewBox="0 0 24 24" fill="none" xmlns="http://www.w3.org/2000/svg">
<g transform="translate(12 12) scale(1.08) translate(-12 -12)">
<path d="M3.04946 11.2519C2.80082 11.4456 2.59044 11.4199 2.59044 11.4199C2.35137 11.4199 2.16967 11.2177 2.16967 11.2177C2.00574 11.0468 2.00027 10.7976 2.00027 10.7976C1.99071 10.4431 2.23661 10.2636 2.23661 10.2636L11.6078 3.14556C12.0245 2.81805 12.3892 3.14556 12.3892 3.14556L21.7495 10.2523C21.8656 10.342 21.9462 10.5086 21.9462 10.5086C22.0473 10.7364 21.9749 10.95 21.9749 10.95C21.8998 11.2419 21.662 11.3487 21.662 11.3487C21.3192 11.5267 21.035 11.316 21.035 11.316L11.9999 4.4656L3.04946 11.2519Z" fill="#333333"/>
<path d="M4.5 10L12 4L19.5 9.5V17.5L19 19.5L17.5 20.5H6L5 19.5L4.5 10Z" fill="#333333"/>
<path d="M5.02604 8.31883C5.02604 8.31883 4.32903 8.91733 3.8185 9.3624L3.8185 17.114C3.8185 17.114 3.80924 18.2806 3.88992 18.7424C3.88992 18.7424 3.97986 19.9409 4.67952 20.4954C4.67952 20.4954 5.11466 20.9237 6.17936 20.983L17.0988 20.9997C17.0988 20.9997 18.4981 21.0331 19.1832 20.4361C19.1832 20.4361 19.629 20.1399 19.8869 19.3227C19.8869 19.3227 20.0615 18.7986 20.0998 17.9814C20.0998 17.9814 20.113 17.9009 20.113 17.433L20.1818 9.42012L18.9055 8.3158L18.8936 18.0497C18.8936 18.0497 18.8738 18.8335 18.6251 19.1677C18.6251 19.1677 18.2548 19.5338 17.8236 19.5672L6.39362 19.6174C6.39362 19.6174 5.58286 19.6371 5.34876 19.3439C5.34876 19.3439 5.1292 19.151 5.08027 18.6923C5.08027 18.6923 5.04985 18.4097 5.02472 17.7353L5.02604 8.31883Z" fill="#333333"/>
<rect x="9.27271" y="13.6316" width="5.45455" height="1.57895" rx="0.789474" fill="white"/>
</g>
</svg>
