<svg width="28" height="28" viewBox="0 0 28 28" fill="none" xmlns="http://www.w3.org/2000/svg">
<path d="M14 0C21.7319 1.67585e-05 27.9998 6.26818 28 14C28 21.732 21.732 28 14 28C6.26801 28 3.37976e-07 21.732 0 14C0.00017902 6.26817 6.26812 3.37971e-07 14 0ZM14 7.53906C13.4052 7.53906 12.9229 8.02144 12.9229 8.61621V12.9238H8.61523C8.02052 12.9239 7.53809 13.4062 7.53809 14.001C7.53834 14.5955 8.02068 15.0771 8.61523 15.0771H12.9229V19.3848C12.9229 19.9795 13.4052 20.4619 14 20.4619C14.5948 20.4619 15.0771 19.9795 15.0771 19.3848V15.0771H19.3848C19.9793 15.0771 20.4617 14.5955 20.4619 14.001C20.4619 13.4063 19.9795 12.9239 19.3848 12.9238H15.0771V8.61621C15.0771 8.02145 14.5948 7.53908 14 7.53906Z" fill="#F42C47"/>
</svg>
