<svg xmlns="http://www.w3.org/2000/svg" xmlns:xlink="http://www.w3.org/1999/xlink" fill="none" version="1.1" width="14" height="14" viewBox="0 0 14 14"><ellipse cx="7" cy="2.0453405380249023" rx="1.3499999046325684" ry="1.2953405380249023" fill-opacity="0" stroke-opacity="1" stroke="#111111" fill="none" stroke-width="1.5"/><ellipse cx="2.0999999046325684" cy="10.226702690124512" rx="1.3499999046325684" ry="1.2953405380249023" fill-opacity="0" stroke-opacity="1" stroke="#111111" fill="none" stroke-width="1.5"/><ellipse cx="11.900000095367432" cy="10.226702690124512" rx="1.3499999046325684" ry="1.2953405380249023" fill-opacity="0" stroke-opacity="1" stroke="#111111" fill="none" stroke-width="1.5"/><g><path d="M1,7.924148294503784Q1,7.668292294503784,1.02124113,7.4133417945037845Q1.042482261,7.158391694503784,1.084814124,6.906151994503785Q1.12714599,6.653912294503784,1.19026887,6.406170094503784Q1.25339174,6.158427994503784,1.3368586900000001,5.916936194503784Q1.42032564,5.675444794503784,1.52354568,5.441914094503784Q1.62676573,5.2083832945037845,1.74900806,4.984466994503784Q1.8712503900000002,4.7605506945037845,2.0116495,4.547834194503784Q2.1520486,4.335117594503784,2.3096102,4.135106994503785Q2.4671719000000003,3.935096294503784,2.6407807,3.749207494503784Q2.8143895,3.563318594503784,3.002816,3.3928678945037842Q3.1912427,3.2224173945037844,3.393153,3.068611694503784Q3.5950632,2.914806124503784,3.8090277,2.778734444503784Q4.0229921,2.642662884503784,4.2474957,2.525288704503784Q4.4719994,2.407914574503784,4.7054527,2.310068964503784Q4.938905999999999,2.2122233545037844,5.179656,2.1345990345037844Q5.4204059,2.0569746865037843,5.666748,2.000121254579784L5.666748,2.8737719045037844L8.333414999999999,2.8737719045037844L8.333414999999999,2.000158893962784Q8.5797501,2.057018104503784,8.820492699999999,2.1346472045037843Q9.0612364,2.212276314503784,9.2946825,2.310125674503784Q9.5281286,2.407975044503784,9.7526245,2.525351884503784Q9.9771214,2.6427288045037844,10.1910791,2.778802094503784Q10.405036,2.9148753845037843,10.6069393,3.068681694503784Q10.8088417,3.222488094503784,10.997262,3.392938494503784Q11.18568,3.5633887945037843,11.359283,3.7492763945037844Q11.532885,3.935164194503784,11.690441,4.135173094503784Q11.847997,4.335181994503785,11.988391,4.547895694503785Q12.128784,4.760609894503784,12.251023,4.984523094503784Q12.37326,5.208435794503784,12.476477,5.441962494503784Q12.579693,5.675489394503784,12.663157,5.916976694503784Q12.74662,6.158463194503784,12.80974,6.406201094503785Q12.87286,6.653938994503784,12.91519,6.9061734945037845Q12.95752,7.158407494503784,12.97876,7.413352694503784Q13,7.6682974945037845,13,7.924148294503784Q13,8.648667094503784,12.831762,9.352870694503785L11.622866,8.675760994503785L10.3333845,11.036626594503785L11.644351,11.770906194503784Q11.433969,12.031381194503783,11.196467,12.266736194503784Q10.9589672,12.502091194503784,10.6972532,12.709446194503784Q10.4355412,12.916804194503785,10.1528158,13.093626194503784Q9.8700924,13.270448194503784,9.5698137,13.414573194503784Q9.269537,13.558699194503784,8.95538,13.668366194503784Q8.641223,13.778032194503783,8.317028,13.851896194503784Q7.9928336,13.925761194503783,7.6625667,13.962921194503783Q7.3322992,14.000079194503785,7,14.000079194503785Q6.6763954,14.000079194503785,6.3546672,13.964833194503784Q6.032939,13.929587194503783,5.7168207,13.859503194503784Q5.4007025,13.789421194503785,5.0938616,13.685314194503784Q4.787020699999999,13.581206194503784,4.493017,13.444282194503785Q4.1990137,13.307360194503785,3.9212584,13.139209194503785Q3.6435032,12.971058194503785,3.3852189,12.773631194503784Q3.1269345,12.576203194503783,2.8911176999999997,12.351790194503785Q2.6553006,12.127375194503784,2.4446868999999998,11.878578894503784L3.8973284,11.064946894503784L2.6078476,8.704081294503784L1.20293118,9.490982294503784Q1,8.721041394503784,1,7.924148294503784ZM9.8195629,5.033110394503784Q11,6.228485394503784,11,7.924148294503784Q11,9.619810294503784,9.8195629,10.815186294503784Q8.649477000000001,12.000079194503785,7,12.000079194503785Q5.3505225,12.000079194503785,4.1804368,10.815186294503784Q3,9.619810294503784,3,7.924148294503784Q3,6.228485794503785,4.1804368,5.033110394503784Q5.350522,3.8482176945037843,7,3.8482176945037843Q8.6494784,3.8482176945037843,9.8195629,5.033110394503784Z" fill-rule="evenodd" fill="#111111" fill-opacity="1"/></g></svg>