<svg width="93" height="100" viewBox="0 0 93 100" fill="none" xmlns="http://www.w3.org/2000/svg">
<path d="M38.9844 70.6184C54.5834 70.6185 62.3375 75.5125 66.1866 80.4397C68.1086 82.9001 69.0505 85.3607 69.5118 87.2073C69.7424 88.1306 69.8534 88.9014 69.9063 89.4417C69.9327 89.7117 69.9448 89.9248 69.9503 90.0706C69.953 90.1433 69.9538 90.1993 69.9542 90.2375C69.9543 90.2561 69.9542 90.2705 69.9542 90.2805C70.1985 92.1403 68.8664 93.6544 66.9805 93.6545H10.9864C9.11151 93.6545 7.69861 92.1281 8.01373 90.2805C8.0137 90.2705 8.01355 90.2561 8.01373 90.2375C8.01411 90.1993 8.01494 90.1433 8.01764 90.0706C8.02306 89.9248 8.03515 89.7117 8.06158 89.4417C8.11449 88.9014 8.22551 88.1306 8.45612 87.2073C8.91734 85.3607 9.85936 82.9001 11.7813 80.4397C15.6304 75.5124 23.3852 70.6184 38.9844 70.6184ZM38.9756 28.3938C48.9685 28.3938 56.9902 35.7859 56.9903 47.1047C56.9903 58.4009 48.9867 67.6702 38.9756 67.6702C28.9647 67.67 20.962 58.4007 20.962 47.1047C20.962 35.786 28.983 28.394 38.9756 28.3938ZM38.9756 31.9426C34.7946 31.9427 31.1804 33.476 28.6114 36.1331C26.0421 38.7904 24.5099 42.58 24.5098 47.1047C24.5098 56.6063 31.0974 64.1221 38.9756 64.1223C46.854 64.1223 53.4424 56.6064 53.4424 47.1047C53.4424 42.58 51.9101 38.7904 49.3409 36.1331C46.7718 33.4759 43.1569 31.9426 38.9756 31.9426Z" fill="#111111" stroke="#111111" stroke-width="0.3"/>
<path d="M35.0784 31.1812H38.976H46.7712L54.5664 38.9763V46.7715V54.5667L46.7712 62.3619L38.976 66.2595L31.1808 62.3619L23.3856 54.5667V42.8739L27.2832 35.0787L35.0784 31.1812Z" fill="#111111"/>
<g clip-path="url(#clip0_983_11)">
<path d="M62.853 14.7447L70.1564 1.37798L77.4599 14.7447L90.8266 22.0481L77.4599 29.3515L70.1564 42.7182L62.853 29.3515L49.4863 22.0481L62.853 14.7447Z" fill="#FF2442"/>
</g>
<defs>
<clipPath id="clip0_983_11">
<rect width="31.1808" height="31.1808" fill="white" transform="matrix(0.707107 -0.707106 0.707107 0.707106 48.1083 22.0481)"/>
</clipPath>
</defs>
</svg>
