<svg width="63" height="90" viewBox="0 0 63 90" fill="none" xmlns="http://www.w3.org/2000/svg">
<path d="M31.5 0C14.085 0 0 14.085 0 31.5C0 55.125 31.5 90 31.5 90C31.5 90 63 55.125 63 31.5C63 14.085 48.915 0 31.5 0ZM31.5 76.95C21.735 63.63 9 42.075 9 31.5C9 19.08 19.08 9 31.5 9C43.92 9 54 19.08 54 31.5C54 42.075 41.265 63.63 31.5 76.95Z" fill="#111111"/>
<path d="M31.5 20.25C25.29 20.25 20.25 25.29 20.25 31.5C20.25 37.71 25.29 42.75 31.5 42.75C37.71 42.75 42.75 37.71 42.75 31.5C42.75 25.29 37.71 20.25 31.5 20.25Z" fill="#F42C47"/>
</svg>
