<svg width="93" height="95" viewBox="-5 -5 103 105" fill="none" xmlns="http://www.w3.org/2000/svg">
<path d="M85.5769 44.0386C85.5769 35.819 83.1383 27.7841 78.5697 20.951C74.0011 14.118 67.5079 8.79397 59.9121 5.65289C52.3163 2.51181 43.9593 1.69489 35.899 3.30553C27.8387 4.91618 20.4374 8.88197 14.6321 14.7009C8.82669 20.5199 4.87819 27.9304 3.28639 35.9944C1.69458 44.0585 2.53102 52.4135 5.68983 60.002C8.84865 67.5904 14.1878 74.0711 21.0315 78.6238C27.8752 83.1764 35.9158 85.5963 44.1354 85.5771M5.26925 30.1925H82.8077M5.26925 57.8848H46.3462" stroke="#111111" stroke-width="9" stroke-linecap="round" stroke-linejoin="round"/>
<path d="M41.7308 2.50024C33.9554 14.96 29.8333 29.3519 29.8333 44.0387C29.8333 58.7255 33.9554 73.1174 41.7308 85.5772M46.3462 2.50024C55.269 16.7988 59.3504 33.5905 57.9862 50.3895" stroke="#111111" stroke-width="9" stroke-linecap="round" stroke-linejoin="round"/>
<path d="M76.3508 85.5772C73.9026 85.5772 71.5548 84.6046 69.8237 82.8735C68.0925 81.1424 67.12 78.7946 67.12 76.3464C67.12 73.8983 68.0925 71.5504 69.8237 69.8193C71.5548 68.0882 73.9026 67.1156 76.3508 67.1156M76.3508 85.5772C78.7989 85.5772 81.1468 84.6046 82.8779 82.8735C84.609 81.1424 85.5816 78.7946 85.5816 76.3464C85.5816 73.8983 84.609 71.5504 82.8779 69.8193C81.1468 68.0882 78.7989 67.1156 76.3508 67.1156M76.3508 85.5772V92.5003M76.3508 67.1156V60.1926M90.34 68.2695L84.3446 71.731M68.3616 80.9618L62.3616 84.4233M62.3616 68.2695L68.3616 71.731M84.3446 80.9618L90.3446 84.4233" stroke="#F42C47" stroke-width="9" stroke-linecap="round" stroke-linejoin="round"/>
</svg>
