<svg width="81" height="90" viewBox="-4 -4 89 98" fill="none" xmlns="http://www.w3.org/2000/svg">
<path d="M77.1429 12.8571C77.1429 11.1522 76.4656 9.51705 75.26 8.31146C74.0544 7.10586 72.4193 6.42857 70.7143 6.42857H57.8571V0H51.4286V6.42857H25.7143V0H19.2857V6.42857H6.42857C4.72361 6.42857 3.08848 7.10586 1.88288 8.31146C0.677294 9.51705 0 11.1522 0 12.8571V77.1429C0 78.8478 0.677294 80.4829 1.88288 81.6885C3.08848 82.8941 4.72361 83.5714 6.42857 83.5714H19.2857V77.1429H6.42857V12.8571H19.2857V19.2857H25.7143V12.8571H51.4286V19.2857H57.8571V12.8571H70.7143V32.1429H77.1429V12.8571Z" fill="#111111" stroke="#111111" stroke-width="3" stroke-linejoin="round"/>
<path d="M54.6428 41.7856L62.8361 57.6578L80.3571 60.2003L67.5 72.556L70.7143 89.9999L54.6428 81.7649L38.5714 89.9999L41.7857 72.556L28.9286 60.2003L46.9286 57.6578L54.6428 41.7856Z" fill="#F42C47" stroke="#F42C47" stroke-width="3" stroke-linejoin="round"/>
</svg>
