<svg xmlns="http://www.w3.org/2000/svg" width="20" height="20" viewBox="0 0 20 20" fill="none">
  <path d="M5.83333 9.16675L9.16667 1.66675C9.82971 1.66675 10.4656 1.93014 10.9344 2.39898C11.4033 2.86782 11.6667 3.50371 11.6667 4.16675V7.50008H16.3833C16.6249 7.49735 16.8642 7.54717 17.0846 7.6461C17.3051 7.74502 17.5013 7.89069 17.6599 8.07301C17.8184 8.25533 17.9354 8.46993 18.0028 8.70196C18.0701 8.93398 18.0863 9.17788 18.05 9.41675L16.9 16.9167C16.8397 17.3142 16.6379 17.6764 16.3316 17.9368C16.0253 18.1971 15.6353 18.338 15.2333 18.3334H5.83333M5.83333 9.16675V18.3334M5.83333 9.16675H3.33333C2.89131 9.16675 2.46738 9.34234 2.15482 9.6549C1.84226 9.96746 1.66667 10.3914 1.66667 10.8334V16.6667C1.66667 17.1088 1.84226 17.5327 2.15482 17.8453C2.46738 18.1578 2.89131 18.3334 3.33333 18.3334H5.83333" stroke="#8A8478" stroke-width="2" stroke-linecap="round" stroke-linejoin="round"/>
</svg>
