<svg width="28" height="24" viewBox="0 0 28 24" fill="none" xmlns="http://www.w3.org/2000/svg">
  <g transform="translate(-2.16 4.84) scale(0.68) rotate(-8 12 12)">
    <path d="M12.0003 2L19.3337 6.4L17.867 17.6L12.0003 22L6.13366 17.6L4.66699 6.4L12.0003 2Z" fill="#F42C47"/>
    <path d="M12.0003 2L15.0669 6.66667L12.0003 22L8.93359 6.66667L12.0003 2Z" fill="#FF8CA0"/>
    <path d="M4.66699 6.3999H19.3337L15.067 6.66657H8.93366L4.66699 6.3999Z" fill="#FFD4DC"/>
    <path d="M12.0003 2L19.3337 6.4L17.867 17.6L12.0003 22L6.13366 17.6L4.66699 6.4L12.0003 2Z" fill="none" stroke="#C51F3A" stroke-width="1" stroke-linejoin="round"/>
  </g>
  <g transform="translate(13.84 4.84) scale(0.68) rotate(8 12 12)">
    <path d="M12.0003 2L19.3337 6.4L17.867 17.6L12.0003 22L6.13366 17.6L4.66699 6.4L12.0003 2Z" fill="#F42C47"/>
    <path d="M12.0003 2L15.0669 6.66667L12.0003 22L8.93359 6.66667L12.0003 2Z" fill="#FF8CA0"/>
    <path d="M4.66699 6.3999H19.3337L15.067 6.66657H8.93366L4.66699 6.3999Z" fill="#FFD4DC"/>
    <path d="M12.0003 2L19.3337 6.4L17.867 17.6L12.0003 22L6.13366 17.6L4.66699 6.4L12.0003 2Z" fill="none" stroke="#C51F3A" stroke-width="1" stroke-linejoin="round"/>
  </g>
  <g transform="translate(2 0)">
    <path d="M12.0003 2L19.3337 6.4L17.867 17.6L12.0003 22L6.13366 17.6L4.66699 6.4L12.0003 2Z" fill="#F42C47"/>
    <path d="M12.0003 2L15.0669 6.66667L12.0003 22L8.93359 6.66667L12.0003 2Z" fill="#FF8CA0"/>
    <path d="M4.66699 6.3999H19.3337L15.067 6.66657H8.93366L4.66699 6.3999Z" fill="#FFD4DC"/>
    <path d="M12.0003 2L19.3337 6.4L17.867 17.6L12.0003 22L6.13366 17.6L4.66699 6.4L12.0003 2Z" fill="none" stroke="#C51F3A" stroke-width="1" stroke-linejoin="round"/>
  </g>
</svg>
