<svg width="14" height="14" viewBox="0 0 14 14" fill="none" xmlns="http://www.w3.org/2000/svg">
<path d="M11.226 1.56738H2.52524C2.0481 1.59199 1.66528 1.97754 1.64478 2.45605V11.9814C1.64478 11.991 1.64478 11.9992 1.64614 12.0088C1.64614 12.0129 1.64614 12.017 1.64751 12.0225C1.64751 12.0266 1.64751 12.032 1.64888 12.0361C1.64888 12.0416 1.65024 12.0471 1.65024 12.0525C1.65024 12.0566 1.65161 12.0594 1.65161 12.0635C1.65298 12.0689 1.65298 12.0758 1.65435 12.0813C1.65435 12.084 1.65571 12.0867 1.65571 12.0908C1.65708 12.0963 1.65845 12.1031 1.65981 12.1086C1.66118 12.1113 1.66118 12.1141 1.66118 12.1168L1.66528 12.1332C1.66665 12.1359 1.66665 12.14 1.66802 12.1428C1.66938 12.1482 1.67075 12.1537 1.67349 12.1578C1.67485 12.1619 1.67622 12.1646 1.67759 12.1687C1.67895 12.1729 1.68169 12.1783 1.68306 12.1824L1.68716 12.1947C1.68853 12.1988 1.69126 12.2029 1.69263 12.207C1.69399 12.2111 1.69673 12.2166 1.6981 12.2207C1.69946 12.2234 1.70083 12.2275 1.70356 12.2303C1.7063 12.2357 1.70903 12.2398 1.7104 12.2453C1.71177 12.248 1.71313 12.2508 1.71587 12.2535C1.7186 12.259 1.72134 12.2631 1.72407 12.2686C1.72544 12.2713 1.72681 12.274 1.72954 12.2768C1.73228 12.2822 1.73638 12.2863 1.73911 12.2918C1.74048 12.2945 1.74321 12.2973 1.74458 12.3C1.74731 12.3055 1.75142 12.3096 1.75552 12.315C1.75825 12.3178 1.75962 12.3205 1.76235 12.3232C1.76509 12.3273 1.76919 12.3314 1.77192 12.3355C1.77466 12.3396 1.77876 12.3424 1.78149 12.3465C1.78423 12.3492 1.78696 12.3533 1.7897 12.3561C1.79653 12.3629 1.802 12.3697 1.80884 12.3766C1.81567 12.3834 1.82251 12.3889 1.82935 12.3957C1.83208 12.3984 1.83618 12.4012 1.83892 12.4039C1.84302 12.4066 1.84575 12.4107 1.84985 12.4135C1.85396 12.4176 1.85806 12.4203 1.86216 12.423C1.86489 12.4258 1.86763 12.4271 1.87036 12.4299C1.87583 12.434 1.87993 12.4367 1.8854 12.4408C1.88813 12.4422 1.89087 12.4449 1.8936 12.4463C1.89907 12.449 1.90317 12.4531 1.90864 12.4559C1.91138 12.4572 1.91411 12.4586 1.91685 12.4613C1.92231 12.4641 1.92642 12.4668 1.93188 12.4695C1.93462 12.4709 1.93735 12.4723 1.94009 12.475C1.94556 12.4777 1.94966 12.4805 1.95513 12.4818C1.95786 12.4832 1.96196 12.4846 1.9647 12.4873C1.9688 12.49 1.97427 12.4914 1.97837 12.4928C1.98247 12.4941 1.98657 12.4969 1.99067 12.4982L2.00298 12.5023C2.00708 12.5037 2.01255 12.5064 2.01665 12.5078C2.02075 12.5092 2.02349 12.5105 2.02759 12.5119C2.03306 12.5133 2.03853 12.516 2.04263 12.5174C2.04536 12.5188 2.04946 12.5188 2.0522 12.5201L2.0686 12.5242C2.07134 12.5256 2.07407 12.5256 2.07817 12.527C2.08364 12.5283 2.09048 12.5297 2.09595 12.5311C2.09868 12.5311 2.10142 12.5324 2.10552 12.5324C2.11099 12.5338 2.11782 12.5352 2.12329 12.5352C2.12739 12.5352 2.13013 12.5365 2.13423 12.5365C2.1397 12.5379 2.14517 12.5379 2.15063 12.5379C2.15474 12.5379 2.16021 12.5393 2.16431 12.5393C2.16841 12.5393 2.17251 12.5406 2.17798 12.5406C2.18755 12.5406 2.19575 12.542 2.20532 12.542C2.21489 12.542 2.22446 12.542 2.23267 12.5406C2.23677 12.5406 2.24087 12.5406 2.24634 12.5393C2.25044 12.5393 2.25591 12.5393 2.26001 12.5379C2.26548 12.5379 2.27095 12.5365 2.27642 12.5365C2.28052 12.5365 2.28325 12.5352 2.28735 12.5352C2.29282 12.5338 2.29966 12.5338 2.30513 12.5324C2.30786 12.5324 2.3106 12.5311 2.3147 12.5311C2.32017 12.5297 2.327 12.5283 2.33247 12.527C2.33521 12.5256 2.33794 12.5256 2.34204 12.5242L2.35845 12.5201C2.36118 12.5188 2.36528 12.5188 2.36802 12.5174C2.37349 12.516 2.37896 12.5146 2.38306 12.5119C2.38716 12.5105 2.38989 12.5092 2.39399 12.5078C2.3981 12.5064 2.40356 12.5037 2.40767 12.5023L2.41997 12.4982C2.42407 12.4969 2.42817 12.4941 2.43228 12.4928C2.43638 12.4914 2.44185 12.4887 2.44595 12.4873C2.44868 12.4859 2.45278 12.4846 2.45552 12.4818C2.46099 12.4791 2.46509 12.4764 2.47056 12.475C2.47329 12.4736 2.47603 12.4723 2.47876 12.4695C2.48423 12.4668 2.48833 12.4641 2.4938 12.4613C2.49653 12.46 2.49927 12.4586 2.502 12.4559C2.50747 12.4531 2.51294 12.449 2.51704 12.4463C2.51978 12.4449 2.52251 12.4422 2.52524 12.4408C2.53071 12.4381 2.53481 12.434 2.54028 12.4299C2.54302 12.4271 2.54575 12.4258 2.54849 12.423C2.55259 12.4203 2.55669 12.4162 2.56216 12.4135C2.56626 12.4107 2.56899 12.408 2.5731 12.4039C2.57583 12.4012 2.57993 12.3984 2.58267 12.3957C2.5895 12.3902 2.59634 12.3834 2.60181 12.3766L6.86743 8.11094L11.1331 12.3766C11.2438 12.4873 11.3901 12.542 11.5364 12.5406H11.5432C11.8522 12.5406 12.1038 12.2904 12.1038 11.9801V2.46699C12.086 1.98438 11.7045 1.59473 11.226 1.56738Z" fill="#FF2442"/>
</svg>
