<svg width="24" height="24" viewBox="0 0 24 24" fill="none" xmlns="http://www.w3.org/2000/svg">
  <circle cx="12" cy="7.9" r="2" fill="currentColor"/>
  <path d="M4.7 24c-.3 0-.5-.1-.8-.2-.6-.3-.9-.9-.9-1.6v-3.6c0-1.3.4-2.3 1.1-3l2-2.1C6 12.4 6 11.2 6 10 6 2.2 11.4.2 11.7.1L12 0l.3.1c.2.1 5.7 2 5.7 9.9 0 1.2 0 2.4-.1 3.5l2 2.1c.7.7 1.1 1.7 1.1 3v3.6c0 .7-.3 1.2-.8 1.5-.6.3-1.2.3-1.8-.1L16 21.8l-1.4 2.1H9.5l-1.4-2-2.4 1.8c-.3.2-.7.3-1 .3Zm5.8-2.1h2.9l.7-1H9.8l.7 1ZM12 2.1c-1 .5-4 2.4-4 7.8 0 1.3.1 2.6.2 3.8v.5L5.5 17c-.4.4-.5.9-.5 1.6v3.1l2.3-1.8c.2-.1.3-.2.4-.2.5-.4 1.2-.8 2-.8h4.6c.9 0 1.6.5 2.2.9l.2.1 2.3 1.7v-3c0-.7-.2-1.2-.5-1.6l-2.7-2.8v-.5c.1-1.2.2-2.5.2-3.8 0-5.4-3-7.3-4-7.8Z" fill="currentColor"/>
</svg>
