<svg xmlns="http://www.w3.org/2000/svg" xmlns:xlink="http://www.w3.org/1999/xlink" fill="none" version="1.1" width="16.3828125" height="19.50075912475586" viewBox="0 0 16.3828125 19.50075912475586"><path d="M13.696876,10.30547C13.687501,8.7070322,14.411718,7.5023446,15.874218,6.6140633C15.05625,5.4421883,13.81875,4.7976565,12.1875,4.6734376C10.642969,4.5515628,8.953124,5.5734377,8.3343744,5.5734377C7.6804681,5.5734377,6.1851563,4.7156253,5.008594,4.7156253C2.5804691,4.7531257,0,6.6515622,0,10.514063C0,11.655469,0.2085937,12.834376,0.62578118,14.048439C1.1835936,15.646876,3.194531,19.563282,5.2921872,19.5C6.3890624,19.47422,7.1648431,18.721876,8.5921869,18.721876C9.9773436,18.721876,10.694531,19.5,11.917969,19.5C14.034375,19.469532,15.853125,15.909376,16.382812,14.306252C13.544531,12.96797,13.696876,10.387501,13.696876,10.30547C13.696876,10.30547,13.696876,10.30547,13.696876,10.30547ZM11.233593,3.1570313C12.421875,1.7460938,12.314063,0.4617188,12.278907,0C11.228907,0.060937501,10.014843,0.71484387,9.3234367,1.5187502C8.561718,2.3812501,8.1140623,3.4476564,8.2101555,4.6500001C9.3445311,4.7367187,10.380468,4.1531253,11.233593,3.1570313C11.233593,3.1570313,11.233593,3.1570313,11.233593,3.1570313Z" fill="#000000" fill-opacity="0.8799999952316284"/></svg>
