<svg width="16" height="16" viewBox="0 0 24 24" fill="none" xmlns="http://www.w3.org/2000/svg">
  <path fill="#111111" d="M12 2C8.13 2 5 5.13 5 9C5 14.25 12 22 12 22C12 22 19 14.25 19 9C19 5.13 15.87 2 12 2ZM12 19.1C9.83 16.14 7 11.35 7 9C7 6.24 9.24 4 12 4C14.76 4 17 6.24 17 9C17 11.35 14.17 16.14 12 19.1ZM12 6.5C10.62 6.5 9.5 7.62 9.5 9C9.5 10.38 10.62 11.5 12 11.5C13.38 11.5 14.5 10.38 14.5 9C14.5 7.62 13.38 6.5 12 6.5ZM12 9.5C11.72 9.5 11.5 9.28 11.5 9C11.5 8.72 11.72 8.5 12 8.5C12.28 8.5 12.5 8.72 12.5 9C12.5 9.28 12.28 9.5 12 9.5Z"/>
</svg>
