<svg xmlns="http://www.w3.org/2000/svg" xmlns:xlink="http://www.w3.org/1999/xlink" fill="none" version="1.1" width="32" height="32" viewBox="0 0 32 32"><g><path d="M16.000000746139527,29.333334746139528C8.636200146139526,29.333334746139528,2.6666667461395264,23.363733746139527,2.6666667461395264,16.000000746139527C2.6666667461395264,8.636200146139526,8.636200146139526,2.6666667461395264,16.000000746139527,2.6666667461395264C23.363733746139527,2.6666667461395264,29.333334746139528,8.636200146139526,29.333334746139528,16.000000746139527C29.333334746139528,23.363733746139527,23.363733746139527,29.333334746139528,16.000000746139527,29.333334746139528ZM16.00009874613953,27.733311746139528C22.480232746139528,27.733311746139528,27.733433746139525,22.480110746139527,27.733433746139525,15.999976746139527C27.733433746139525,9.519829546139526,22.480232746139528,4.266642346139527,16.00009874613953,4.266642346139527C9.519951546139527,4.266642346139527,4.266764446139526,9.519829546139526,4.266764446139526,15.999976746139527C4.266764446139526,22.480110746139527,9.519951546139527,27.733311746139528,16.00009874613953,27.733311746139528ZM13.333658746139527,12.000040746139526C13.333658746139527,13.104613746139526,12.438232146139526,14.000040746139526,11.333658946139526,14.000040746139526C10.229089546139527,14.000040746139526,9.333658946139526,13.104613746139526,9.333658946139526,12.000040746139526C9.333658946139526,10.895471346139527,10.229089546139527,10.000040746139526,11.333658946139526,10.000040746139526C12.438232146139526,10.000040746139526,13.333658746139527,10.895471346139527,13.333658746139527,12.000040746139526ZM22.666666746139526,12.000040746139526C22.666666746139526,13.104613746139526,21.771238746139527,14.000040746139526,20.666666746139526,14.000040746139526C19.562098746139526,14.000040746139526,18.666666746139526,13.104613746139526,18.666666746139526,12.000040746139526C18.666666746139526,10.895471346139527,19.562098746139526,10.000040746139526,20.666666746139526,10.000040746139526C21.771238746139527,10.000040746139526,22.666666746139526,10.895471346139527,22.666666746139526,12.000040746139526ZM16.000162746139527,24.666666746139526C20.418444746139528,24.666666746139526,24.000162746139527,21.084946746139526,24.000162746139527,16.666666746139526L8.000162846139526,16.666666746139526C8.000162846139526,21.084946746139526,11.581883146139527,24.666666746139526,16.000162746139527,24.666666746139526ZM16.000294746139524,23.066641746139528C18.982439746139526,23.066641746139528,21.488201746139527,21.027002746139527,22.198667746139527,18.266642746139524L9.801920646139527,18.266642746139524C10.512388446139527,21.027002746139527,13.018146746139527,23.066641746139528,16.000294746139524,23.066641746139528Z" fill-rule="evenodd" fill="#000000" fill-opacity="0.8999999761581421"/></g></svg>