<svg width="12" height="12" viewBox="0 0 12 12" fill="none" xmlns="http://www.w3.org/2000/svg">
<path d="M10.3446 5.38071L10.3449 5.38042L2.85959 0.247663L2.85725 0.24987C2.70216 0.102597 2.49176 0.0119629 2.25987 0.0119629C1.78287 0.0119629 1.39621 0.394803 1.39621 0.867391C1.39621 1.12694 1.38502 1.63512 1.39621 1.6241V6.00015V10.6065C1.39621 10.6103 1.39621 10.9023 1.39621 11.133C1.39621 11.6053 1.78287 11.9882 2.25987 11.9882C2.49264 11.9882 2.70392 11.897 2.859 11.7484L2.85959 11.7487L10.3449 6.61605L10.3446 6.6156C10.5073 6.46009 10.6088 6.24189 10.6088 5.99999C10.6088 5.99941 10.6088 5.99896 10.6088 5.99823C10.6088 5.99764 10.6088 5.99692 10.6088 5.99648C10.6088 5.75456 10.5073 5.53621 10.3446 5.38071Z" fill="#444444"/>
</svg>
