<svg width="10" height="10" viewBox="0 0 10 10" fill="none" xmlns="http://www.w3.org/2000/svg">
<g clip-path="url(#clip0_78_818)">
<path d="M5.00067 6.09985C7.03071 6.09985 8.06865 6.73861 8.59344 7.4104C8.85346 7.74326 8.98197 8.07654 9.04462 8.32739C9.0759 8.45271 9.09101 8.55827 9.09833 8.63306C9.10195 8.67015 9.1034 8.69987 9.10419 8.72095C9.10458 8.73153 9.1051 8.74027 9.10516 8.74634V8.75708C9.10516 8.75711 9.10472 8.7561 9.10321 8.7561C9.1329 9.06457 8.90619 9.31665 8.59247 9.31665H1.40985C1.10445 9.31665 0.859052 9.06932 0.897156 8.75708V8.74634C0.897215 8.74027 0.897739 8.73153 0.898132 8.72095C0.898921 8.69987 0.900368 8.67016 0.903992 8.63306C0.911315 8.55826 0.926415 8.45273 0.957703 8.32739C1.02033 8.07663 1.14807 7.74314 1.4079 7.4104C1.93266 6.73865 2.97088 6.09993 5.00067 6.09985ZM4.99969 0.682861C6.3541 0.682861 7.44199 1.69028 7.44208 3.21411C7.44208 4.7181 6.37238 5.98364 4.99969 5.98364C3.62716 5.98346 2.55829 4.71799 2.55829 3.21411C2.55838 1.69039 3.64543 0.683011 4.99969 0.682861ZM4.99969 1.39966C4.4965 1.39973 4.06761 1.58404 3.76434 1.89771C3.46088 2.21159 3.27513 2.66387 3.27509 3.21411C3.27509 4.38022 4.07947 5.26665 4.99969 5.26685C5.92005 5.26685 6.72528 4.38035 6.72528 3.21411C6.72524 2.66398 6.53938 2.21158 6.23602 1.89771C5.9327 1.58398 5.50302 1.39966 4.99969 1.39966Z" fill="#444444" stroke="#444444" stroke-width="0.3"/>
<path d="M4.5 1.17163H5H6L7 2.17163V3.17163V4.17163L6 5.17163L5 5.67163L4 5.17163L3 4.17163V2.67163L3.5 1.67163L4.5 1.17163Z" fill="#444444"/>
</g>
<defs>
<clipPath id="clip0_78_818">
<rect width="10" height="10" fill="white"/>
</clipPath>
</defs>
</svg>
