<svg xmlns="http://www.w3.org/2000/svg" xmlns:xlink="http://www.w3.org/1999/xlink" fill="none" version="1.1" width="32" height="32" viewBox="0 0 32 32"><g><path d="M2.6666667461395264,16.000000746139527C2.6666667461395264,23.363733746139527,8.636200146139526,29.333334746139528,16.000000746139527,29.333334746139528C23.363733746139527,29.333334746139528,29.333334746139528,23.363733746139527,29.333334746139528,16.000000746139527C29.333334746139528,8.636200146139526,23.363733746139527,2.6666667461395264,16.000000746139527,2.6666667461395264C8.636200146139526,2.6666667461395264,2.6666667461395264,8.636200146139526,2.6666667461395264,16.000000746139527ZM27.733433746139525,15.999976746139527C27.733433746139525,22.480110746139527,22.480232746139528,27.733311746139528,16.00009874613953,27.733311746139528C9.519951546139527,27.733311746139528,4.266764446139526,22.480110746139527,4.266764446139526,15.999976746139527C4.266764446139526,9.519829546139526,9.519951546139527,4.266642346139527,16.00009874613953,4.266642346139527C22.480232746139528,4.266642346139527,27.733433746139525,9.519829546139526,27.733433746139525,15.999976746139527ZM16.411295746139526,22.411161746139527C18.10169474613953,20.720736746139526,19.066854746139526,18.438814746139528,19.066854746139526,16.000027746139526C19.066854746139526,13.561240746139527,18.10169474613953,11.279320446139526,16.411295746139526,9.588930846139526L17.542665746139527,8.457560346139527C19.472948746139526,10.387853846139526,20.666853746139527,13.054520746139527,20.666853746139527,16.000027746139526C20.666853746139527,18.945547746139525,19.472948746139526,21.612215746139526,17.542665746139527,23.542494746139525L16.411295746139526,22.411161746139527ZM15.333252746139527,16.000066746139524C15.333252746139527,17.435226746139527,14.765936746139527,18.776520746139525,13.771158746139527,19.771292746139526L14.902529746139527,20.902666746139527C16.15721274613953,19.647985746139526,16.933252746139527,17.914652746139524,16.933252746139527,16.000066746139524C16.933252746139527,14.085465746139526,16.15721274613953,12.352139246139526,14.902529746139527,11.097452846139527L13.771158746139527,12.228823446139526C14.765936746139527,13.223598746139526,15.333252746139527,14.564892746139526,15.333252746139527,16.000066746139524ZM13.200163746139527,15.999968746139526C13.200163746139527,16.883622746139526,12.841989746139527,17.683621746139526,12.262909646139526,18.262701746139527L10.000162846139526,15.999968746139526L12.262909646139526,13.737223746139527C12.841989746139527,14.316309746139526,13.200163746139527,15.116302746139526,13.200163746139527,15.999968746139526Z" fill-rule="evenodd" fill="#000000" fill-opacity="0.8999999761581421"/></g></svg>