<svg width="30" height="30" viewBox="0 0 30 30" fill="none" xmlns="http://www.w3.org/2000/svg">
  <path d="M11 14C8.8 14 7 12.2 7 10C7 7.8 8.8 6 11 6C13.2 6 15 7.8 15 10C15 12.2 13.2 14 11 14ZM4.5 24C4.8 19.8 7.2 17.5 11 17.5C14.8 17.5 17.2 19.8 17.5 24M19 13.5C17.4 13.5 16.1 12.2 16.1 10.6C16.1 9 17.4 7.7 19 7.7C20.6 7.7 21.9 9 21.9 10.6C21.9 12.2 20.6 13.5 19 13.5ZM18.8 17.2C22.4 17.3 24.7 19.6 25 24" stroke="#111111" stroke-width="2.2" stroke-linecap="round" stroke-linejoin="round" />
</svg>
