<svg width="465" height="126" viewBox="0 0 465 126" fill="none" xmlns="http://www.w3.org/2000/svg">
<path fill-rule="evenodd" clip-rule="evenodd" d="M93.9237 12.4531H95.7066L117.874 24.0405L118.193 24.7279L93.3228 123.929L92.8709 124.453L70.869 112.453L93.9237 12.4531Z" fill="#FF2442"/>
<path fill-rule="evenodd" clip-rule="evenodd" d="M0.000427246 12.4531H1.73151L23.8714 24.0324L24.2825 24.6685L48.8708 122.811L48.8714 124.888L24.9026 112.388L0.000427246 12.4531Z" fill="#FF2442"/>
<path fill-rule="evenodd" clip-rule="evenodd" d="M47.3447 12.4531H48.7113L70.869 24.0182L71.3081 24.6847L92.8746 122.769V124.453L70.869 112.453L47.3447 12.4531Z" fill="#FF2442"/>
<path fill-rule="evenodd" clip-rule="evenodd" d="M23.8708 0.453125L0.871826 12.4531L23.8708 24.4531L46.8709 12.4531L23.8708 0.453125Z" stroke="#4D4D4D" stroke-width="0.8"/>
<path fill-rule="evenodd" clip-rule="evenodd" d="M70.8708 0.453125L47.8718 12.4531L70.8708 24.4531L93.8709 12.4531L70.8708 0.453125Z" stroke="#4D4D4D" stroke-width="0.8"/>
<path d="M70.8708 24.4531L92.8746 124.453" stroke="#4D4D4D" stroke-width="0.8"/>
<path d="M0.388123 12.3599L25.2886 112.332" stroke="#4D4D4D" stroke-width="0.8"/>
<path d="M47.3447 12.5498L70.869 112.453" stroke="#4D4D4D" stroke-width="0.8"/>
<path d="M23.8713 24.4531L48.8708 124.453" stroke="#4D4D4D" stroke-width="0.8"/>
<path fill-rule="evenodd" clip-rule="evenodd" d="M117.875 0.453125L140.874 12.4531L117.875 24.4531L94.8745 12.4531L117.875 0.453125Z" stroke="#4D4D4D" stroke-width="0.8"/>
<path d="M141.35 12.3506L115.717 112.707" stroke="#4D4D4D" stroke-width="0.8"/>
<path d="M94.2828 12.5698L80.6189 68.4774L80.5617 68.7114" stroke="#4D4D4D" stroke-width="0.8"/>
<path d="M61.1345 71.1348L61.0519 71.4939L48.8713 124.453" stroke="#4D4D4D" stroke-width="0.8"/>
<path d="M117.874 24.4531L92.8746 124.453" stroke="#4D4D4D" stroke-width="0.8"/>
<path d="M25.0817 112.072L48.8714 124.453L70.869 112.453" stroke="#4D4D4D" stroke-width="0.8"/>
<path d="M70.869 112.453L92.8713 124.453L115.923 112.453" stroke="#4D4D4D" stroke-width="0.8"/>
<path fill-rule="evenodd" clip-rule="evenodd" d="M118.845 58.4531V100.026L162.898 124.453V102.453L140.871 90.4531L140.881 70.4531L118.845 58.4531Z" fill="#FF2442"/>
<path fill-rule="evenodd" clip-rule="evenodd" d="M162.865 34.4531L119.334 58.4531L140.608 70.4531L162.919 58.4531L183.873 70.4531L205.378 58.4531L162.865 34.4531Z" fill="#FF2442"/>
<path d="M183.873 70.4531V90.4531" stroke="#4D4D4D"/>
<path d="M140.608 70.4531V90.4531" stroke="#4D4D4D"/>
<path d="M205.899 58.4531V100.453" stroke="#4D4D4D"/>
<path d="M118.845 58.4531V100.453" stroke="#4D4D4D"/>
<path fill-rule="evenodd" clip-rule="evenodd" d="M162.881 34.4531L119.334 58.4531L140.88 70.4531L162.881 58.4531L183.873 70.4531L205.378 58.4531L162.881 34.4531Z" stroke="#4D4D4D"/>
<path d="M118.586 100.026L162.898 124.453L206.154 100.026" stroke="#4D4D4D"/>
<path d="M140.359 90.0442L162.865 102.453V124.453" stroke="#4D4D4D"/>
<path d="M162.865 102.453L184.135 90.0325" stroke="#4D4D4D"/>
<path d="M140.608 90.4531L162.866 78.4531L183.873 90.4531" stroke="#4D4D4D"/>
<path d="M162.919 58.4531L162.865 78.3229" stroke="#4D4D4D"/>
<path fill-rule="evenodd" clip-rule="evenodd" d="M199.877 54.4531L222.878 66.4531V124.453L200.192 112.453L199.877 54.4531Z" fill="#FF2442"/>
<path fill-rule="evenodd" clip-rule="evenodd" d="M237.417 34.4531L199.877 54.6875L222.878 66.7478L259.558 45.7822L237.417 34.4531Z" fill="#FF2442"/>
<path d="M199.868 112.453L222.868 124.453L245.741 112.453" stroke="#4D4D4D" stroke-width="0.8"/>
<path d="M199.877 54.4531L200.192 112.794" stroke="#4D4D4D"/>
<path d="M222.868 66.4531V124.453" stroke="#4D4D4D"/>
<path d="M245.338 79.4434L245.423 112.804" stroke="#4D4D4D"/>
<path d="M259.881 45.7822V70.5594L245.083 79.8765" stroke="#4D4D4D"/>
<path d="M199.62 54.8818L237.417 34.4531L259.558 45.8064L222.612 66.8891" stroke="#4D4D4D"/>
<path fill-rule="evenodd" clip-rule="evenodd" d="M255.872 12.4531L278.871 24.4531L279.367 124.453L256.088 112.453L255.872 12.4531Z" fill="#FF2442"/>
<path fill-rule="evenodd" clip-rule="evenodd" d="M278.867 0.453125L256.318 12.4531L278.867 24.4531L301.41 12.4531L278.867 0.453125Z" stroke="#4D4D4D" stroke-width="0.8"/>
<path d="M278.871 24.4531L279.367 124.453" stroke="#4D4D4D" stroke-width="0.8"/>
<path d="M301.867 12.4531L301.445 113.187" stroke="#4D4D4D" stroke-width="0.8"/>
<path d="M255.868 112.453L279.367 124.453L301.655 112.835" stroke="#4D4D4D" stroke-width="0.8"/>
<path d="M255.872 12.4531L256.088 112.795" stroke="#4D4D4D" stroke-width="0.8"/>
<path fill-rule="evenodd" clip-rule="evenodd" d="M336.872 12.4531L359.871 24.4531L360.367 124.453L339.845 113.87L356.881 105.313V85.1309L338.172 75.1095L356.881 64.4546V46.6855L336.931 37.5578L336.872 12.4531Z" fill="#FF2442"/>
<path fill-rule="evenodd" clip-rule="evenodd" d="M359.867 0.453125L337.318 12.4531L359.867 24.4531L382.41 12.4531L359.867 0.453125Z" stroke="#4D4D4D" stroke-width="0.8"/>
<path d="M359.871 24.4531L360.367 124.453" stroke="#4D4D4D" stroke-width="0.8"/>
<path d="M336.872 12.4531L337.041 40.3116" stroke="#4D4D4D" stroke-width="0.8"/>
<path d="M382.867 12.4531L382.444 113.187" stroke="#4D4D4D" stroke-width="0.8"/>
<path d="M339.627 113.839L360.366 124.453L382.655 112.835" stroke="#4D4D4D" stroke-width="0.8"/>
<path fill-rule="evenodd" clip-rule="evenodd" d="M356.881 85.1308L337.997 75.1094V95.2588L356.881 85.1308Z" fill="#FF2442"/>
<path fill-rule="evenodd" clip-rule="evenodd" d="M296.877 54.4531L319.878 66.4531V124.453L297.192 112.453L296.877 54.4531Z" fill="#FF2442"/>
<path fill-rule="evenodd" clip-rule="evenodd" d="M334.417 34.4531L296.877 54.6875L319.878 66.7478L356.201 46.4044L334.417 34.4531Z" fill="#FF2442"/>
<path d="M296.868 112.453L319.868 124.453" stroke="#4D4D4D" stroke-width="0.8"/>
<path d="M296.877 54.4531L297.192 112.794" stroke="#4D4D4D"/>
<path d="M319.868 66.4531V124.453" stroke="#4D4D4D"/>
<path d="M356.881 46.4536V64.4547L337.855 75.1824V95.4532L356.625 85.1391" stroke="#4D4D4D"/>
<path d="M356.881 84.6929V105.313L319.462 124.37" stroke="#4D4D4D"/>
<path d="M296.62 54.8818L334.417 34.4531L356.329 46.4565L319.612 66.8891" stroke="#4D4D4D"/>
<path d="M337.997 75.1094L357.134 85.1309" stroke="#4D4D4D"/>
<path fill-rule="evenodd" clip-rule="evenodd" d="M376.845 58.4531V100.026L420.898 124.453V102.453L398.871 90.4531L398.88 70.4531L376.845 58.4531Z" fill="#FF2442"/>
<path fill-rule="evenodd" clip-rule="evenodd" d="M420.865 34.4531L377.334 58.4531L398.608 70.4531L420.919 58.4531L441.873 70.4531L463.378 58.4531L420.865 34.4531Z" fill="#FF2442"/>
<path d="M441.873 70.4531V90.4531" stroke="#4D4D4D"/>
<path d="M398.608 70.4531V90.4531" stroke="#4D4D4D"/>
<path d="M463.899 58.4531V100.453" stroke="#4D4D4D"/>
<path d="M376.845 58.4531V100.453" stroke="#4D4D4D"/>
<path fill-rule="evenodd" clip-rule="evenodd" d="M420.881 34.4531L377.334 58.4531L398.88 70.4531L420.881 58.4531L441.873 70.4531L463.378 58.4531L420.881 34.4531Z" stroke="#4D4D4D"/>
<path d="M376.586 100.026L420.898 124.453L464.154 100.026" stroke="#4D4D4D"/>
<path d="M398.359 90.0442L420.865 102.453V124.453" stroke="#4D4D4D"/>
<path d="M420.865 102.453L442.135 90.0325" stroke="#4D4D4D"/>
<path d="M398.608 90.4531L420.866 78.4531L441.873 90.4531" stroke="#4D4D4D"/>
<path d="M420.919 58.4531L420.865 78.3229" stroke="#4D4D4D"/>
</svg>
